<svg width="28" height="28" viewBox="0 0 28 28" fill="none" xmlns="http://www.w3.org/2000/svg">
<path d="M21.2333 24.1L18.8333 13.1667L23.5 8.5C25.5 6.5 26.1667 3.83333 25.5 2.5C24.1667 1.83333 21.5 2.5 19.5 4.5L14.8333 9.16667L3.9 6.76667C3.23333 6.63333 2.7 6.9 2.43333 7.43333L2.03333 8.1C1.76667 8.76667 1.9 9.43333 2.43333 9.83333L9.5 14.5L6.83333 18.5H2.83333L1.5 19.8333L5.5 22.5L8.16667 26.5L9.5 25.1667V21.1667L13.5 18.5L18.1667 25.5667C18.5667 26.1 19.2333 26.2333 19.9 25.9667L20.5667 25.7C21.1 25.3 21.3667 24.7667 21.2333 24.1Z" stroke="#0AA0DB" stroke-width="2.66667" stroke-linecap="round" stroke-linejoin="round"/>
</svg>
