<svg width="21" height="20" viewBox="0 0 21 20" fill="none" xmlns="http://www.w3.org/2000/svg">
<path d="M12.5833 3.3335H8.41663L6.33329 5.8335H3.83329C3.39127 5.8335 2.96734 6.00909 2.65478 6.32165C2.34222 6.63421 2.16663 7.05814 2.16663 7.50016V15.0002C2.16663 15.4422 2.34222 15.8661 2.65478 16.1787C2.96734 16.4912 3.39127 16.6668 3.83329 16.6668H17.1666C17.6087 16.6668 18.0326 16.4912 18.3451 16.1787C18.6577 15.8661 18.8333 15.4422 18.8333 15.0002V7.50016C18.8333 7.05814 18.6577 6.63421 18.3451 6.32165C18.0326 6.00909 17.6087 5.8335 17.1666 5.8335H14.6666L12.5833 3.3335Z" stroke="#0AA0DB" stroke-width="1.66667" stroke-linecap="round" stroke-linejoin="round"/>
<path d="M10.5 13.3335C11.8807 13.3335 13 12.2142 13 10.8335C13 9.45278 11.8807 8.3335 10.5 8.3335C9.11929 8.3335 8 9.45278 8 10.8335C8 12.2142 9.11929 13.3335 10.5 13.3335Z" stroke="#0AA0DB" stroke-width="1.66667" stroke-linecap="round" stroke-linejoin="round"/>
</svg>
