<svg width="21" height="21" viewBox="0 0 21 21" fill="none" xmlns="http://www.w3.org/2000/svg">
<path d="M14.6666 2.1665H6.33329C4.03211 2.1665 2.16663 4.03198 2.16663 6.33317V14.6665C2.16663 16.9677 4.03211 18.8332 6.33329 18.8332H14.6666C16.9678 18.8332 18.8333 16.9677 18.8333 14.6665V6.33317C18.8333 4.03198 16.9678 2.1665 14.6666 2.1665Z" stroke="#0AA0DB" stroke-width="1.66667" stroke-linecap="round" stroke-linejoin="round"/>
<path d="M13.8334 9.97476C13.9362 10.6683 13.8178 11.3766 13.4948 11.9989C13.1719 12.6213 12.661 13.1259 12.0347 13.4412C11.4085 13.7564 10.6987 13.8661 10.0065 13.7547C9.31431 13.6433 8.67484 13.3165 8.17907 12.8207C7.6833 12.325 7.35648 11.6855 7.2451 10.9933C7.13371 10.3011 7.24343 9.59134 7.55865 8.96507C7.87386 8.33881 8.37853 7.82788 9.00086 7.50496C9.62319 7.18205 10.3315 7.06359 11.025 7.16643C11.7325 7.27133 12.3874 7.60098 12.8931 8.10669C13.3988 8.61239 13.7285 9.26733 13.8334 9.97476Z" stroke="#0AA0DB" stroke-width="1.66667" stroke-linecap="round" stroke-linejoin="round"/>
<path d="M15.0834 5.9165H15.0917" stroke="#0AA0DB" stroke-width="1.66667" stroke-linecap="round" stroke-linejoin="round"/>
</svg>
