<svg width="15" height="15" viewBox="0 0 15 15" fill="none" xmlns="http://www.w3.org/2000/svg">
<path d="M14.1667 10.7802V12.7802C14.1675 12.9659 14.1294 13.1497 14.055 13.3198C13.9807 13.4899 13.8716 13.6426 13.7348 13.7681C13.5979 13.8937 13.4364 13.9892 13.2605 14.0487C13.0847 14.1082 12.8983 14.1303 12.7134 14.1136C10.6619 13.8907 8.69137 13.1897 6.96004 12.0669C5.34926 11.0433 3.98359 9.67768 2.96004 8.06689C1.83336 6.3277 1.1322 4.34756 0.91337 2.28689C0.89671 2.10254 0.91862 1.91673 0.977704 1.74131C1.03679 1.56589 1.13175 1.40469 1.25655 1.26797C1.38134 1.13126 1.53324 1.02203 1.70256 0.947242C1.87189 0.87245 2.05493 0.833735 2.24004 0.833561H4.24004C4.56357 0.830376 4.87723 0.944946 5.12254 1.15592C5.36786 1.36689 5.52809 1.65986 5.57337 1.98023C5.65779 2.62027 5.81434 3.24871 6.04004 3.85356C6.12973 4.09218 6.14915 4.3515 6.09597 4.60081C6.0428 4.85012 5.91928 5.07897 5.74004 5.26023L4.89337 6.10689C5.84241 7.77592 7.22434 9.15786 8.89337 10.1069L9.74004 9.26023C9.9213 9.08099 10.1501 8.95746 10.3994 8.90429C10.6488 8.85112 10.9081 8.87053 11.1467 8.96023C11.7516 9.18593 12.38 9.34248 13.02 9.42689C13.3439 9.47258 13.6396 9.6357 13.8511 9.88522C14.0625 10.1348 14.1748 10.4533 14.1667 10.7802Z" stroke="#0AA0DB" stroke-width="1.33333" stroke-linecap="round" stroke-linejoin="round"/>
</svg>
