<svg width="25" height="30" viewBox="0 0 25 30" fill="none" xmlns="http://www.w3.org/2000/svg">
<path d="M23.1667 16.3333C23.1667 22.9999 18.5 26.3333 12.9534 28.2666C12.6629 28.365 12.3474 28.3603 12.06 28.2533C6.50004 26.3333 1.83337 22.9999 1.83337 16.3333V6.99995C1.83337 6.64633 1.97385 6.30719 2.2239 6.05714C2.47395 5.80709 2.81309 5.66662 3.16671 5.66662C5.83337 5.66662 9.16671 4.06662 11.4867 2.03995C11.7692 1.79861 12.1285 1.66602 12.5 1.66602C12.8716 1.66602 13.2309 1.79861 13.5134 2.03995C15.8467 4.07995 19.1667 5.66662 21.8334 5.66662C22.187 5.66662 22.5261 5.80709 22.7762 6.05714C23.0262 6.30719 23.1667 6.64633 23.1667 6.99995V16.3333Z" stroke="#0AA0DB" stroke-width="2.66667" stroke-linecap="round" stroke-linejoin="round"/>
</svg>
