<svg width="17" height="16" viewBox="0 0 17 16" fill="none" xmlns="http://www.w3.org/2000/svg">
<path d="M10.5507 14.4572C10.576 14.5203 10.62 14.5742 10.6769 14.6116C10.7337 14.6489 10.8006 14.668 10.8686 14.6663C10.9366 14.6646 11.0024 14.6421 11.0572 14.6018C11.1121 14.5616 11.1533 14.5055 11.1754 14.4412L15.5087 1.77454C15.53 1.71547 15.5341 1.65154 15.5204 1.59024C15.5068 1.52894 15.4759 1.4728 15.4315 1.42839C15.3871 1.38398 15.331 1.35314 15.2696 1.33947C15.2083 1.3258 15.1444 1.32987 15.0854 1.35121L2.41868 5.68454C2.35435 5.7066 2.2983 5.74782 2.25807 5.80266C2.21783 5.85749 2.19533 5.92332 2.19359 5.99131C2.19185 6.05931 2.21095 6.1262 2.24832 6.18303C2.2857 6.23985 2.33956 6.28388 2.40268 6.30921L7.68935 8.42921C7.85648 8.49612 8.00832 8.59618 8.13573 8.72336C8.26314 8.85054 8.36347 9.0022 8.43069 9.16921L10.5507 14.4572Z" stroke="#FAFAFA" stroke-width="1.33333" stroke-linecap="round" stroke-linejoin="round"/>
<path d="M15.4293 1.43115L8.13599 8.72382" stroke="#FAFAFA" stroke-width="1.33333" stroke-linecap="round" stroke-linejoin="round"/>
</svg>
