<svg width="21" height="17" viewBox="0 0 21 17" fill="none" xmlns="http://www.w3.org/2000/svg">
<g clip-path="url(#clip0_2_1339)">
<path d="M8.4834 2.02997C8.51262 1.97094 8.55775 1.92126 8.6137 1.88652C8.66966 1.85178 8.73421 1.83337 8.80007 1.83337C8.86593 1.83337 8.93048 1.85178 8.98643 1.88652C9.04239 1.92126 9.08752 1.97094 9.11674 2.02997L10.6567 5.1493C10.7582 5.35461 10.9079 5.53224 11.0932 5.66694C11.2784 5.80164 11.4935 5.88938 11.7201 5.92264L15.1641 6.42664C15.2293 6.43609 15.2906 6.46362 15.3411 6.5061C15.3915 6.54859 15.429 6.60434 15.4494 6.66704C15.4698 6.72975 15.4722 6.79691 15.4565 6.86093C15.4407 6.92495 15.4073 6.98327 15.3601 7.0293L12.8694 9.45464C12.7051 9.6147 12.5822 9.81229 12.5113 10.0304C12.4403 10.2485 12.4234 10.4806 12.4621 10.7066L13.0501 14.1333C13.0616 14.1985 13.0545 14.2657 13.0297 14.3271C13.0049 14.3885 12.9634 14.4417 12.9098 14.4806C12.8562 14.5196 12.7927 14.5426 12.7266 14.5472C12.6606 14.5518 12.5945 14.5378 12.5361 14.5066L9.4574 12.888C9.25455 12.7815 9.02886 12.7258 8.79974 12.7258C8.57062 12.7258 8.34492 12.7815 8.14207 12.888L5.06407 14.5066C5.00562 14.5376 4.93967 14.5515 4.8737 14.5468C4.80774 14.5421 4.74441 14.519 4.69093 14.4801C4.63745 14.4412 4.59596 14.3881 4.57117 14.3268C4.54639 14.2655 4.53931 14.1984 4.55074 14.1333L5.13807 10.7073C5.17687 10.4811 5.16006 10.2489 5.08909 10.0307C5.01813 9.81243 4.89514 9.61474 4.73074 9.45464L2.24007 7.02997C2.19246 6.98399 2.15873 6.92557 2.14271 6.86135C2.12669 6.79714 2.12903 6.72971 2.14945 6.66676C2.16988 6.60381 2.20758 6.54786 2.25825 6.50529C2.30893 6.46272 2.37054 6.43524 2.43607 6.42597L5.8794 5.92264C6.10624 5.88964 6.32166 5.80201 6.50712 5.66729C6.69259 5.53258 6.84254 5.35482 6.94407 5.1493L8.4834 2.02997Z" fill="#EAB308" stroke="#EAB308" stroke-width="1.33333" stroke-linecap="round" stroke-linejoin="round"/>
</g>
<defs>
<clipPath id="clip0_2_1339">
<rect width="16" height="16" fill="white" transform="translate(0.800049 0.5)"/>
</clipPath>
</defs>
</svg>
