<svg width="21" height="21" viewBox="0 0 21 21" fill="none" xmlns="http://www.w3.org/2000/svg">
<path d="M2.58334 14.6667C2.00119 11.9194 2.00119 9.08061 2.58334 6.33333C2.65983 6.05434 2.80762 5.80006 3.01218 5.5955C3.21674 5.39095 3.47101 5.24316 3.75001 5.16667C8.21955 4.42622 12.7805 4.42622 17.25 5.16667C17.529 5.24316 17.7833 5.39095 17.9878 5.5955C18.1924 5.80006 18.3402 6.05434 18.4167 6.33333C18.9988 9.08061 18.9988 11.9194 18.4167 14.6667C18.3402 14.9457 18.1924 15.1999 17.9878 15.4045C17.7833 15.6091 17.529 15.7568 17.25 15.8333C12.7805 16.5739 8.21953 16.5739 3.75001 15.8333C3.47101 15.7568 3.21674 15.6091 3.01218 15.4045C2.80762 15.1999 2.65983 14.9457 2.58334 14.6667Z" stroke="#0AA0DB" stroke-width="1.66667" stroke-linecap="round" stroke-linejoin="round"/>
<path d="M8.83337 13L13 10.5L8.83337 8V13Z" stroke="#0AA0DB" stroke-width="1.66667" stroke-linecap="round" stroke-linejoin="round"/>
</svg>
